<?xml version="1.0" encoding="UTF-8"?>
<svg version="1.1" xmlns="http://www.w3.org/2000/svg" width="900" height="600">
<path d="M0 0 C297 0 594 0 900 0 C900 198 900 396 900 600 C603 600 306 600 0 600 C0 402 0 204 0 0 Z " fill="#00B3D6" transform="translate(0,0)"/>
<path d="M0 0 C3.46513354 2.87289183 6.74821479 5.88936073 10 9 C10.69996094 9.62519531 11.39992188 10.25039062 12.12109375 10.89453125 C23.29228986 21.23823135 33.38487662 39.10761459 34.1875 54.625 C34.125625 55.40875 34.06375 56.1925 34 57 C35.485 56.505 35.485 56.505 37 56 C61.22875913 54.04888922 84.01272647 59.39998149 103 75 C103.71542969 75.56460938 104.43085937 76.12921875 105.16796875 76.7109375 C120.06342545 88.98456333 130.81871674 108.58461117 133.71484375 127.6484375 C135.87724055 153.06400535 131.72486175 176.80109556 115 197 C107.66460556 205.40618516 98.39404583 215.78960774 87 218 C87.31453125 218.62003906 87.6290625 219.24007812 87.953125 219.87890625 C97.35743435 239.3390283 100.06802295 263.07299845 93.19140625 283.89453125 C92.79824219 284.91933594 92.40507813 285.94414062 92 287 C91.63777344 288.03511719 91.27554687 289.07023437 90.90234375 290.13671875 C82.55646433 312.23208086 64.99843038 328.13164816 44.07177734 338.07666016 C23.38461222 347.29641723 -0.6318324 346.03454249 -21.59765625 338.75 C-32.76035292 334.3986498 -41.75383784 327.47268971 -51 320 C-51.69222656 320.6290625 -52.38445312 321.258125 -53.09765625 321.90625 C-73.15992364 339.45742991 -95.62638473 345.48172041 -122 344 C-145.21119607 342.03934016 -165.04978716 329.38248313 -180 312 C-194.17825747 293.488785 -199.99252483 270.04313561 -198 247 C-196.56233333 236.8247336 -193.36696484 227.28874899 -189 218 C-189.85722656 217.76667969 -190.71445312 217.53335938 -191.59765625 217.29296875 C-195.40183965 215.84729171 -198.29301695 213.82509748 -201.4375 211.3125 C-202.01024658 210.8597168 -202.58299316 210.40693359 -203.1730957 209.94042969 C-216.34692612 199.40136535 -225.1481259 186.78645107 -231 171 C-231.47373047 169.80117188 -231.47373047 169.80117188 -231.95703125 168.578125 C-239.3490224 148.62339028 -237.07826928 125.57510459 -228.59765625 106.3671875 C-217.8721145 83.762256 -199.51744262 67.67619709 -176.08105469 59.31542969 C-163.00796779 55.01498523 -149.60694818 55.57350132 -136 56 C-135.8040625 55.030625 -135.608125 54.06125 -135.40625 53.0625 C-130.58381925 30.82946996 -118.64209157 12.04031463 -99.90625 -1.18359375 C-69.6338797 -20.61816158 -29.437939 -22.5831717 0 0 Z " fill="#01B3D6" transform="translate(500,125)"/>
<path d="M0 0 C3.46513354 2.87289183 6.74821479 5.88936073 10 9 C10.69996094 9.62519531 11.39992188 10.25039062 12.12109375 10.89453125 C23.29228986 21.23823135 33.38487662 39.10761459 34.1875 54.625 C34.125625 55.40875 34.06375 56.1925 34 57 C35.485 56.505 35.485 56.505 37 56 C61.22875913 54.04888922 84.01272647 59.39998149 103 75 C103.71542969 75.56460938 104.43085937 76.12921875 105.16796875 76.7109375 C120.06342545 88.98456333 130.81871674 108.58461117 133.71484375 127.6484375 C135.87724055 153.06400535 131.72486175 176.80109556 115 197 C107.66460556 205.40618516 98.39404583 215.78960774 87 218 C87.31453125 218.62003906 87.6290625 219.24007812 87.953125 219.87890625 C97.35743435 239.3390283 100.06802295 263.07299845 93.19140625 283.89453125 C92.79824219 284.91933594 92.40507813 285.94414062 92 287 C91.63777344 288.03511719 91.27554687 289.07023437 90.90234375 290.13671875 C82.55646433 312.23208086 64.99843038 328.13164816 44.07177734 338.07666016 C23.38461222 347.29641723 -0.6318324 346.03454249 -21.59765625 338.75 C-32.76035292 334.3986498 -41.75383784 327.47268971 -51 320 C-51.69222656 320.6290625 -52.38445312 321.258125 -53.09765625 321.90625 C-73.15992364 339.45742991 -95.62638473 345.48172041 -122 344 C-145.21119607 342.03934016 -165.04978716 329.38248313 -180 312 C-194.17825747 293.488785 -199.99252483 270.04313561 -198 247 C-196.56233333 236.8247336 -193.36696484 227.28874899 -189 218 C-189.85722656 217.76667969 -190.71445312 217.53335938 -191.59765625 217.29296875 C-195.40183965 215.84729171 -198.29301695 213.82509748 -201.4375 211.3125 C-202.01024658 210.8597168 -202.58299316 210.40693359 -203.1730957 209.94042969 C-216.34692612 199.40136535 -225.1481259 186.78645107 -231 171 C-231.47373047 169.80117188 -231.47373047 169.80117188 -231.95703125 168.578125 C-239.3490224 148.62339028 -237.07826928 125.57510459 -228.59765625 106.3671875 C-217.8721145 83.762256 -199.51744262 67.67619709 -176.08105469 59.31542969 C-163.00796779 55.01498523 -149.60694818 55.57350132 -136 56 C-135.8040625 55.030625 -135.608125 54.06125 -135.40625 53.0625 C-130.58381925 30.82946996 -118.64209157 12.04031463 -99.90625 -1.18359375 C-69.6338797 -20.61816158 -29.437939 -22.5831717 0 0 Z M-107.83203125 24.17578125 C-117.540127 36.82254383 -123.21388104 51.32860957 -123.0625 67.375 C-123.05347656 68.62023437 -123.04445313 69.86546875 -123.03515625 71.1484375 C-123.02355469 72.08945313 -123.01195312 73.03046875 -123 74 C-123.54527344 73.80664062 -124.09054687 73.61328125 -124.65234375 73.4140625 C-125.40644531 73.15367187 -126.16054688 72.89328125 -126.9375 72.625 C-127.66839844 72.36976563 -128.39929688 72.11453125 -129.15234375 71.8515625 C-148.83545712 65.9655286 -167.65555447 68.50795654 -185.7734375 78.078125 C-190.60018395 80.9531362 -194.82825438 84.24994708 -199 88 C-199.91652344 88.77730469 -199.91652344 88.77730469 -200.8515625 89.5703125 C-212.43914275 100.09966624 -220.91426562 117.08011998 -222.22143555 132.63500977 C-223.10730315 153.89394333 -219.3715208 173.0783954 -205.14453125 189.69921875 C-195.68536053 199.84758223 -184.93742674 206.9489807 -172 212 C-171.01 212 -170.02 212 -169 212 C-169.44730469 212.66644531 -169.89460938 213.33289063 -170.35546875 214.01953125 C-182.41820978 232.40942429 -187.61863527 252.03418575 -183.46142578 273.95019531 C-179.11688934 293.25005138 -167.44951508 309.17594858 -151 320 C-133.97969536 330.226521 -115.10667429 334.34755336 -95.4375 329.8125 C-93.61026886 329.25446776 -91.79650456 328.65018842 -90 328 C-89.01 327.64808594 -88.02 327.29617188 -87 326.93359375 C-72.39120513 321.28759267 -59.76621658 312.07805482 -51 299 C-50.44054687 299.71671875 -49.88109375 300.4334375 -49.3046875 301.171875 C-36.77163279 316.5514201 -20.41108142 328.01769039 -0.34375 330.7109375 C20.0565615 332.47451583 38.75650088 328.9393882 55.3125 316.0625 C56.88891383 314.72455641 58.45268098 313.37148731 60 312 C60.61359375 311.48050781 61.2271875 310.96101563 61.859375 310.42578125 C73.8981936 299.46382945 82.16282785 281.88186338 83.13720703 265.72485352 C83.94523838 245.93979598 80.37108264 229.00963636 68 213 C68.75023437 212.70867187 69.50046875 212.41734375 70.2734375 212.1171875 C91.63861967 203.56035132 106.87882151 190.17726201 116.15429688 169.03173828 C123.10032376 152.34443004 123.49016761 132.93764889 117 116 C108.38574632 95.59755338 93.35678345 81.40766296 73 73 C56.30223397 67.15072196 39.61389539 67.58295114 23 73 C22.90203125 71.76765625 22.8040625 70.5353125 22.703125 69.265625 C20.79377487 47.30920985 13.13351549 28.47319061 -3.66015625 13.65234375 C-36.93929624 -11.78487813 -80.55948434 -7.34452518 -107.83203125 24.17578125 Z " fill="#FAFDFE" transform="translate(500,125)"/>
<path d="M0 0 C0.66 0 1.32 0 2 0 C2.99 2.97 3.98 5.94 5 9 C8.63 9 12.26 9 16 9 C14.989375 9.928125 13.97875 10.85625 12.9375 11.8125 C10.72989671 14.32513512 10.02807435 15.53458972 9.82421875 18.9140625 C10.0960885 21.64688308 10.46434286 24.30710547 11 27 C6.545 25.02 6.545 25.02 2 23 C2 47.75 2 72.5 2 98 C3.65 98 5.3 98 7 98 C7.17255814 97.45187149 7.34511627 96.90374298 7.52290344 96.33900452 C9.30693487 90.813874 11.40540223 85.53522804 13.79296875 80.24609375 C14.31930656 79.06660912 14.31930656 79.06660912 14.85627747 77.86329651 C15.96272802 75.38623814 17.07499797 72.91184549 18.1875 70.4375 C18.94505021 68.74431451 19.70221517 67.05095659 20.45898438 65.35742188 C22.3015478 61.23627721 24.14933 57.11751025 26 53 C25.51402344 52.401875 25.02804687 51.80375 24.52734375 51.1875 C22.46898018 48.23946011 22.48575197 46.52627222 23 43 C24.625 40.625 24.625 40.625 27 39 C30.6717087 38.38804855 32.28813568 38.51293494 35.375 40.625 C37 43 37 43 37.5625 46 C37 49 37 49 34.6875 51.3125 C32 53 32 53 29 54 C27.82991019 55.72465685 27.82991019 55.72465685 26.89941406 57.90551758 C26.51601868 58.73340286 26.13262329 59.56128815 25.73760986 60.41426086 C25.33435486 61.31525009 24.93109985 62.21623932 24.515625 63.14453125 C24.09577332 64.06586349 23.67592163 64.98719574 23.24334717 65.93644714 C22.35734225 67.88860801 21.47672842 69.84322321 20.60107422 71.80004883 C19.25696662 74.79696672 17.88955848 77.78243608 16.51953125 80.76757812 C15.66263221 82.66341667 14.80711687 84.55988138 13.953125 86.45703125 C13.54177307 87.35194778 13.13042114 88.24686432 12.706604 89.16889954 C12.33581726 90.0062413 11.96503052 90.84358307 11.58300781 91.70629883 C11.08695038 92.80763908 11.08695038 92.80763908 10.58087158 93.93122864 C9.89292851 96.3813346 10.05586738 97.65243503 11 100 C12.9837767 101.28436734 12.9837767 101.28436734 15 102 C15.556875 101.43152344 16.11375 100.86304688 16.6875 100.27734375 C20.36039005 96.56102425 24.03084523 92.90098947 28 89.5 C31.78864346 86.25259132 35.27142743 82.76269958 38.75 79.1875 C40.89626725 77.10085128 43.13280345 75.32612305 45.5 73.5 C47.79340246 71.56776329 48.8503622 70.60259546 49.578125 67.671875 C49.68943376 66.10343345 49.77203672 64.5325825 49.8203125 62.9609375 C50 61 50 61 51.625 58.875 C55.0769738 57.60322018 57.48167158 58.08784078 61 59 C63.32749345 62.49124017 63.50299316 63.89222251 63 68 C61.5 70.375 61.5 70.375 59 72 C57.02464974 71.90285163 55.04931291 71.80534799 53.07421875 71.703125 C49.60275837 72.19998185 48.01974905 74.47572449 45.7734375 77.01171875 C44.00469972 78.99473093 42.15406327 80.66272724 40.125 82.375 C36.30248041 85.66620413 32.78061438 89.19719126 29.24609375 92.79296875 C26.50149947 95.48983096 23.6057828 97.95890498 20.62890625 100.39453125 C18.86725943 102.13083063 17.97484481 103.74169117 17 106 C19.09235317 107.32579737 19.09235317 107.32579737 21.91625977 106.18652344 C23.17730314 105.75178463 24.43548938 105.30870898 25.69140625 104.859375 C26.37665878 104.62114014 27.06191132 104.38290527 27.76792908 104.13745117 C29.2557545 103.6193928 30.74241066 103.0979671 32.22802734 102.5736084 C35.3702426 101.46502618 38.51830603 100.37355791 41.66622925 99.28131104 C43.29942055 98.71452254 44.93233104 98.14692428 46.56497192 97.57855225 C54.46786792 94.82886558 62.38916627 92.1358213 70.32394409 89.47961426 C71.77179796 88.99416036 73.2190077 88.50678104 74.66555786 88.01745605 C76.68186399 87.33542942 78.7000024 86.65913491 80.71875 85.984375 C81.86279297 85.59991211 83.00683594 85.21544922 84.18554688 84.81933594 C87 84 87 84 90 84 C90 83.34 90 82.68 90 82 C88.35 81.34 86.7 80.68 85 80 C85 79.34 85 78.68 85 78 C88.63 77.67 92.26 77.34 96 77 C96.2165625 75.6078125 96.2165625 75.6078125 96.4375 74.1875 C97 71 97 71 98 68 C98.66 68 99.32 68 100 68 C103 73.625 103 73.625 103 77 C106.63 77 110.26 77 114 77 C112.989375 77.928125 111.97875 78.85625 110.9375 79.8125 C108.72989671 82.32513512 108.02807435 83.53458972 107.82421875 86.9140625 C108.0960885 89.64688308 108.46434286 92.30710547 109 95 C108.48050781 94.68804687 107.96101562 94.37609375 107.42578125 94.0546875 C103.11785402 91.4940489 103.11785402 91.4940489 98.3125 91.5625 C97.549375 92.036875 96.78625 92.51125 96 93 C95.071875 93.53625 94.14375 94.0725 93.1875 94.625 C92.465625 95.07875 91.74375 95.5325 91 96 C91.50199198 92.27091669 92.04207023 88.63852314 93 85 C92.36944702 85.2334613 91.73889404 85.46692261 91.0892334 85.7074585 C83.40579061 88.52931515 75.66847659 91.16939267 67.90625 93.765625 C67.25812851 93.98260796 66.61000702 94.19959091 65.94224548 94.42314911 C62.5287606 95.56592267 59.11472922 96.70704452 55.70019531 97.84667969 C52.18058548 99.02172924 48.66287408 100.20236122 45.14554596 101.38422012 C42.42711865 102.29655719 39.70736585 103.20488989 36.98722839 104.11211395 C35.68855579 104.54601286 34.39038294 104.9814106 33.09272766 105.41834259 C31.28784613 106.02563971 29.4808826 106.62673857 27.67382812 107.22753906 C26.64777466 107.57077209 25.62172119 107.91400513 24.5645752 108.26763916 C22 109 22 109 19 109 C19.33 111.64 19.66 114.28 20 117 C45.245 118.98 45.245 118.98 71 121 C71.99 119.02 71.99 119.02 73 117 C76.59555526 116.00123465 78.91755134 115.58367359 82.4375 116.9375 C84.52615748 119.69452787 84.5729296 121.72255568 84.37890625 125.12109375 C84 127 84 127 82.4375 129.0625 C78.874103 130.43303731 76.6365931 130.05791799 73 129 C72.6388208 128.18176758 72.2776416 127.36353516 71.90551758 126.52050781 C70.29836992 123.87987735 70.29836992 123.87987735 68.03964233 123.40856934 C65.38327659 123.04845012 62.74989935 122.83678362 60.07421875 122.671875 C59.09387161 122.59253723 58.11352448 122.51319946 57.10346985 122.43145752 C53.96606349 122.18216521 50.82740267 121.96533508 47.6875 121.75 C44.55918005 121.51319203 41.43141718 121.26987697 38.30366516 121.0256958 C36.35748239 120.87622941 34.41085739 120.73238558 32.46379089 120.59490967 C27.92113729 120.26920736 23.48133023 119.85677273 19 119 C18.67 120.65 18.34 122.3 18 124 C27.17331844 130.03632871 36.41576216 135.94140572 45.8125 141.625 C46.66553711 142.14545898 47.51857422 142.66591797 48.39746094 143.20214844 C49.20086914 143.68458008 50.00427734 144.16701172 50.83203125 144.6640625 C51.54077393 145.09154785 52.2495166 145.5190332 52.97973633 145.95947266 C56.54795144 147.79726514 58.49660663 148.08989167 62.5 147.375 C66 147 66 147 68.4375 147.9375 C70.52615748 150.69452787 70.5729296 152.72255568 70.37890625 156.12109375 C70 158 70 158 68.4375 160.0625 C64.9788559 161.39274773 62.5559841 160.85607025 59 160 C58.34 159.34 57.68 158.68 57 158 C57.00193359 156.40091797 57.00193359 156.40091797 57.00390625 154.76953125 C55.85037131 150.43816465 55.28784682 150.10476875 51.65234375 147.82421875 C49.76067098 146.75481545 47.85467612 145.7104785 45.9375 144.6875 C43.928472 143.56597668 41.92066865 142.44225696 39.9140625 141.31640625 C38.91536133 140.76355957 37.91666016 140.21071289 36.88769531 139.64111328 C32.07285332 136.9047785 27.44334497 133.88030601 22.83764648 130.80737305 C21.27161182 129.7956646 19.63998824 128.88682417 18 128 C17.01 128.33 16.02 128.66 15 129 C15.32572998 129.45101074 15.65145996 129.90202148 15.98706055 130.36669922 C21.09163411 137.43457031 26.19620768 144.50244141 31.30078125 151.5703125 C31.83034424 152.30354736 32.35990723 153.03678223 32.90551758 153.79223633 C33.97178482 155.26861891 35.03802816 156.74501876 36.10424805 158.22143555 C38.91268579 162.11027033 41.72160471 165.9987563 44.53125 169.88671875 C45.11197266 170.69044922 45.69269531 171.49417969 46.29101562 172.32226562 C47.39372692 173.84841806 48.49658099 175.37446735 49.59960938 176.90039062 C52.74715707 181.25698353 55.87984031 185.62374661 59 190 C60.98 187.03 60.98 187.03 63 184 C64.57270656 186.00162653 65.88662742 187.69616148 66.78125 190.09375 C67.85547188 192.25193389 67.85547188 192.25193389 70.3828125 192.609375 C71.28773438 192.65578125 72.19265625 192.7021875 73.125 192.75 C74.03507813 192.80671875 74.94515625 192.8634375 75.8828125 192.921875 C76.58148437 192.94765625 77.28015625 192.9734375 78 193 C77.55527344 193.38929688 77.11054687 193.77859375 76.65234375 194.1796875 C73.89881636 196.90185353 72.08402707 198.71345215 71.82421875 202.69140625 C72.09567048 205.16972525 72.46139839 207.5665 73 210 C72.0925 209.690625 71.185 209.38125 70.25 209.0625 C69.1775 208.711875 68.105 208.36125 67 208 C66.0409375 207.64421875 66.0409375 207.64421875 65.0625 207.28125 C62.21490024 206.89294094 61.08810291 207.83979634 58.75 209.4375 C58.04359375 209.91058594 57.3371875 210.38367188 56.609375 210.87109375 C56.07828125 211.24363281 55.5471875 211.61617187 55 212 C55.15339844 211.27554688 55.30679688 210.55109375 55.46484375 209.8046875 C55.9582552 206.74635206 56.26332727 204.09197185 56 201 C54.04514737 198.33894407 51.73750004 196.78859105 49 195 C49 194.67 49 194.34 49 194 C51.31 193.67 53.62 193.34 56 193 C56 189.74553831 53.6768254 187.54018294 51.8125 185 C51.14408081 184.07719238 51.14408081 184.07719238 50.4621582 183.13574219 C49.49001912 181.79419359 48.5158882 180.45408668 47.54003906 179.11523438 C45.98694209 176.98206504 44.44151377 174.84355225 42.8984375 172.703125 C38.44881832 166.5310946 33.98924016 160.36628397 29.52734375 154.203125 C23.95967356 146.50878215 18.3991679 138.81406845 13 131 C11.02 131.33 9.04 131.66 7 132 C7.79831672 136.28286656 8.59795097 140.56548466 9.39868164 144.84790039 C9.66953046 146.29738098 9.94005119 147.74692293 10.21020508 149.1965332 C10.60406352 151.30958007 10.99906039 153.42241059 11.39453125 155.53515625 C11.59080612 156.58650253 11.59080612 156.58650253 11.79104614 157.65908813 C12.45443182 161.18917697 13.13988608 164.71276682 13.86865234 168.22998047 C14.00800705 168.90604843 14.14736176 169.58211639 14.29093933 170.27867126 C14.67485115 172.12867081 15.06511651 173.97734862 15.45581055 175.82592773 C15.93768463 178.63653562 16.11116068 181.1588933 16 184 C17.175625 184.185625 17.175625 184.185625 18.375 184.375 C21 185 21 185 23 187 C23.54587156 193.00458716 23.54587156 193.00458716 21.9375 195.9375 C18.88023824 197.6140629 16.4093712 197.36528977 13 197 C11.0625 195.9375 11.0625 195.9375 10 194 C9.625 190.5 9.625 190.5 10 187 C10.76061989 186.27771965 10.76061989 186.27771965 11.53660583 185.54084778 C13.20193254 184.11581432 13.20193254 184.11581432 13.13148499 182.03862 C13.01856613 181.31519913 12.90564728 180.59177826 12.78930664 179.84643555 C12.67032013 179.04837494 12.55133362 178.25031433 12.42874146 177.42807007 C12.21651443 176.22617538 12.21651443 176.22617538 12 175 C11.87696503 174.29082428 11.75393005 173.58164856 11.62716675 172.85098267 C11.23378622 170.71387303 10.80722146 168.58580885 10.37109375 166.45703125 C10.05524678 164.87306517 9.73949433 163.28908024 9.42382812 161.70507812 C8.92973086 159.24936304 8.43375653 156.79404497 7.93579102 154.33911133 C7.45100116 151.94186961 6.97321748 149.54330868 6.49609375 147.14453125 C6.27112465 146.05214897 6.27112465 146.05214897 6.04161072 144.93769836 C5.24120718 140.89676583 4.84541934 137.11798027 5 133 C2.36 133 -0.28 133 -3 133 C-3.10086914 133.87760986 -3.20173828 134.75521973 -3.30566406 135.65942383 C-4.18135089 142.77042847 -5.27727779 149.75853041 -6.796875 156.76171875 C-6.95514771 157.49391632 -7.11342041 158.22611389 -7.27648926 158.98049927 C-7.93130477 161.98783218 -8.59361125 164.99329547 -9.27001953 167.99584961 C-9.77013189 170.22786764 -10.25336837 172.46301774 -10.734375 174.69921875 C-10.89153992 175.37522629 -11.04870483 176.05123383 -11.21063232 176.74772644 C-11.80421717 179.55059479 -12.16495845 181.52976722 -11.20410156 184.26879883 C-10.60807129 185.12574341 -10.60807129 185.12574341 -10 186 C-8 189 -8 189 -8.1875 191.5 C-9.09705128 194.29861933 -9.51170112 195.42407738 -12 197 C-15.4093712 197.36528977 -17.88023824 197.6140629 -20.9375 195.9375 C-22.6140629 192.88023824 -22.36528977 190.4093712 -22 187 C-20.75 185.0625 -20.75 185.0625 -19 184 C-17.68 184 -16.36 184 -15 184 C-14.87383301 182.87295654 -14.74766602 181.74591309 -14.61767578 180.5847168 C-14.02830623 175.88131031 -13.09734276 171.27979533 -12.1171875 166.64453125 C-11.75091227 164.87052315 -11.38503862 163.09643209 -11.01953125 161.32226562 C-10.44651006 158.55644065 -9.87053699 155.7913406 -9.28759766 153.02758789 C-8.72208141 150.33912651 -8.16874031 147.64838692 -7.6171875 144.95703125 C-7.44017303 144.13298294 -7.26315857 143.30893463 -7.08078003 142.45991516 C-6.24462042 138.33470555 -5.72130153 135.12746417 -7 131 C-7.66 131 -8.32 131 -9 131 C-10.83325629 133.40230397 -12.55236295 135.81624778 -14.25 138.3125 C-15.33411439 139.87886755 -16.42012561 141.44392359 -17.5078125 143.0078125 C-18.36294434 144.23806152 -18.36294434 144.23806152 -19.23535156 145.49316406 C-22.13156248 149.6074825 -25.12717053 153.6469294 -28.125 157.6875 C-32.64445776 163.78861393 -37.10942199 169.92150188 -41.50195312 176.11450195 C-45.56234738 181.82336867 -49.76754125 187.41806165 -54 193 C-51.03 193.33 -48.06 193.66 -45 194 C-46.010625 194.928125 -47.02125 195.85625 -48.0625 196.8125 C-50.27010329 199.32513512 -50.97192565 200.53458972 -51.17578125 203.9140625 C-50.9039115 206.64688308 -50.53565714 209.30710547 -50 212 C-50.77923828 211.53207031 -50.77923828 211.53207031 -51.57421875 211.0546875 C-55.88214598 208.4940489 -55.88214598 208.4940489 -60.6875 208.5625 C-61.450625 209.036875 -62.21375 209.51125 -63 210 C-64.3921875 210.804375 -64.3921875 210.804375 -65.8125 211.625 C-66.534375 212.07875 -67.25625 212.5325 -68 213 C-67.76990234 211.89591797 -67.76990234 211.89591797 -67.53515625 210.76953125 C-67.04881806 207.72690308 -66.73153206 205.07439096 -67 202 C-68.65571811 200.03220937 -70.16151745 199.08062207 -72.43359375 197.90234375 C-72.95050781 197.60457031 -73.46742188 197.30679688 -74 197 C-74 196.34 -74 195.68 -74 195 C-70.37 194.67 -66.74 194.34 -63 194 C-62.855625 193.071875 -62.71125 192.14375 -62.5625 191.1875 C-62 188 -62 188 -61 185 C-60.34 185 -59.68 185 -59 185 C-58.34 186.98 -57.68 188.96 -57 191 C-53.34239017 187.51625543 -50.403996 183.97456276 -47.5 179.8125 C-46.62169929 178.56337609 -45.7427611 177.31470023 -44.86328125 176.06640625 C-44.40002441 175.40656738 -43.93676758 174.74672852 -43.45947266 174.06689453 C-40.89841071 170.43993728 -38.29116624 166.84643107 -35.6875 163.25 C-34.58718807 161.72790182 -33.48692826 160.20576596 -32.38671875 158.68359375 C-31.83290527 157.91772949 -31.2790918 157.15186523 -30.70849609 156.36279297 C-27.80459787 152.34679883 -24.90220346 148.32971896 -22 144.3125 C-21.47237061 143.58256836 -20.94474121 142.85263672 -20.40112305 142.10058594 C-17.25330059 137.74368946 -14.1203959 133.37658469 -11 129 C-13.92636367 127.65426046 -13.92636367 127.65426046 -16.3815918 129.02880859 C-17.31140869 129.56328613 -18.24122559 130.09776367 -19.19921875 130.6484375 C-20.2368335 131.2374585 -21.27444824 131.82647949 -22.34350586 132.43334961 C-23.99878296 133.39446655 -23.99878296 133.39446655 -25.6875 134.375 C-27.95277206 135.67639579 -30.21839747 136.97717671 -32.484375 138.27734375 C-34.14823242 139.23616455 -34.14823242 139.23616455 -35.84570312 140.21435547 C-38.58551946 141.76536295 -41.34259212 143.24912705 -44.140625 144.69140625 C-44.87837158 145.07828613 -45.61611816 145.46516602 -46.3762207 145.86376953 C-47.70942637 146.55824288 -49.05139568 147.23625087 -50.40307617 147.89404297 C-53.93687575 149.77117715 -54.92927564 150.80711538 -56.33203125 154.6328125 C-56.66267578 156.29957031 -56.66267578 156.29957031 -57 158 C-58.25 159.9375 -58.25 159.9375 -60 161 C-63.63031776 161.54068562 -65.32214079 161.46379841 -68.375 159.375 C-70.48706506 156.28813568 -70.61195145 154.6717087 -70 151 C-68.375 148.625 -68.375 148.625 -66 147 C-63.08573673 146.69643091 -60.87502872 146.69975935 -58.09594727 147.65332031 C-55.22228572 148.12863766 -53.98496333 147.27474539 -51.46484375 145.859375 C-50.58135254 145.37098145 -49.69786133 144.88258789 -48.78759766 144.37939453 C-47.84706543 143.84169434 -46.9065332 143.30399414 -45.9375 142.75 C-44.97118652 142.20585449 -44.00487305 141.66170898 -43.00927734 141.10107422 C-41.00171587 139.96827577 -38.99686029 138.83066958 -36.99462891 137.68847656 C-34.12513035 136.07055287 -31.23196695 134.50881537 -28.32421875 132.9609375 C-26.59072005 132.01640602 -24.85762743 131.07112877 -23.125 130.125 C-22.30507568 129.69799805 -21.48515137 129.27099609 -20.64038086 128.83105469 C-18.56044289 127.66951044 -16.74088104 126.6264905 -15 125 C-14.3192319 121.78038003 -14.3192319 121.78038003 -15 119 C-16.31484375 119.18175781 -16.31484375 119.18175781 -17.65625 119.3671875 C-34.2923949 121.56505217 -51.19680272 123.5907374 -68 123 C-68.103125 123.78375 -68.20625 124.5675 -68.3125 125.375 C-69 128 -69 128 -72 130 C-78.45283019 129.54716981 -78.45283019 129.54716981 -81 127 C-81.67681895 119.89340102 -81.67681895 119.89340102 -79.4375 116.9375 C-75.91755134 115.58367359 -73.59555526 116.00123465 -70 117 C-68.7890625 119.05859375 -68.7890625 119.05859375 -68 121 C-67.15554825 120.92483154 -67.15554825 120.92483154 -66.29403687 120.84814453 C-60.42172407 120.32594408 -54.54909448 119.80742374 -48.67626953 119.29101562 C-46.48608233 119.09794484 -44.29597694 118.90394358 -42.10595703 118.70898438 C-38.95366247 118.42852603 -35.8010865 118.15144198 -32.6484375 117.875 C-31.67321136 117.78750488 -30.69798523 117.70000977 -29.69320679 117.60986328 C-25.11249938 117.21134479 -20.60375179 116.89215223 -16 117 C-15.67 114.36 -15.34 111.72 -15 109 C-16.947854 108.59031982 -16.947854 108.59031982 -18.93505859 108.17236328 C-23.72470519 107.10601118 -28.36779056 105.73628054 -33.0390625 104.2421875 C-33.87524612 103.97779877 -34.71142975 103.71341003 -35.57295227 103.44100952 C-38.25839588 102.59009241 -40.94180666 101.7329841 -43.625 100.875 C-44.99279099 100.43963928 -44.99279099 100.43963928 -46.38821411 99.9954834 C-83.88248531 88.05875734 -83.88248531 88.05875734 -90 85 C-89.649375 85.9075 -89.29875 86.815 -88.9375 87.75 C-88.03531221 90.87758436 -87.86618493 92.05208081 -89 95 C-90.051875 94.29875 -91.10375 93.5975 -92.1875 92.875 C-95.19261598 91.11947357 -95.19261598 91.11947357 -98.625 91.5625 C-99.40875 92.036875 -100.1925 92.51125 -101 93 C-101.928125 93.53625 -102.85625 94.0725 -103.8125 94.625 C-104.8953125 95.305625 -104.8953125 95.305625 -106 96 C-105.84660156 95.26394531 -105.69320313 94.52789062 -105.53515625 93.76953125 C-105.04881806 90.72690308 -104.73153206 88.07439096 -105 85 C-106.65571811 83.03220937 -108.16151745 82.08062207 -110.43359375 80.90234375 C-110.95050781 80.60457031 -111.46742188 80.30679688 -112 80 C-112 79.34 -112 78.68 -112 78 C-106.555 77.505 -106.555 77.505 -101 77 C-100.855625 76.071875 -100.71125 75.14375 -100.5625 74.1875 C-100 71 -100 71 -99 68 C-98.34 68 -97.68 68 -97 68 C-94 73.625 -94 73.625 -94 77 C-90.37 77 -86.74 77 -83 77 C-84.65 79.31 -86.3 81.62 -88 84 C-86.824375 84.226875 -85.64875 84.45375 -84.4375 84.6875 C-79.5149494 85.77798703 -74.80800203 87.3522361 -70.04101562 88.98242188 C-65.54002346 90.51197033 -61.01053693 91.88861905 -56.4375 93.1875 C-46.57457548 96.00701384 -36.87297175 99.33031388 -27.15600586 102.61010742 C-26.51624817 102.82557724 -25.87649048 103.04104706 -25.21734619 103.26304626 C-23.45709739 103.85636927 -21.69764002 104.45203874 -19.93823242 105.04785156 C-17.63193402 105.79521872 -15.36071915 106.4577358 -13 107 C-13.57550046 103.6595657 -14.53228826 102.12984786 -17.02734375 99.86328125 C-17.6497998 99.2904541 -18.27225586 98.71762695 -18.91357422 98.12744141 C-19.58146973 97.52851074 -20.24936523 96.92958008 -20.9375 96.3125 C-21.9586792 95.37929932 -21.9586792 95.37929932 -23.00048828 94.42724609 C-24.99301992 92.60990277 -26.99523294 90.80382425 -29 89 C-29.95777344 88.12988281 -30.91554688 87.25976562 -31.90234375 86.36328125 C-33.5041442 84.91331022 -35.11435563 83.47255538 -36.734375 82.04296875 C-38.30345221 80.62809396 -39.83290428 79.16849321 -41.328125 77.67578125 C-45.19646544 73.64807101 -45.19646544 73.64807101 -50.19921875 71.609375 C-52.13586873 71.68097019 -54.06894894 71.8363516 -56 72 C-58.5 71 -58.5 71 -60 69 C-60.55571764 66.22141178 -60.56022617 63.77802872 -60 61 C-58.4375 58.9375 -58.4375 58.9375 -56 58 C-49.67272727 58.32727273 -49.67272727 58.32727273 -47 61 C-46.82983398 62.91796875 -46.82983398 62.91796875 -46.80859375 65.1875 C-46.26896075 70.99000538 -43.37738053 73.40123038 -39.0625 77 C-38.38098877 77.60030029 -37.69947754 78.20060059 -36.99731445 78.8190918 C-35.63489955 80.01677499 -34.26450224 81.20544738 -32.88574219 82.38427734 C-30.44155341 84.47848259 -28.06537486 86.64354386 -25.6875 88.8125 C-24.12560878 90.2090145 -22.56309889 91.60483735 -21 93 C-19.12435694 94.68678521 -17.24934811 96.37427596 -15.375 98.0625 C-14.53710938 98.81660156 -13.69921875 99.57070313 -12.8359375 100.34765625 C-12.23007812 100.89292969 -11.62421875 101.43820312 -11 102 C-10.34 101.67 -9.68 101.34 -9 101 C-9.36298322 95.55525168 -10.99942131 91.53520445 -13.3359375 86.63671875 C-16.0084151 80.79616324 -18.37487166 74.83153489 -20.7890625 68.88061523 C-21.52360798 67.07119125 -22.26087389 65.2628686 -23.0012207 63.45581055 C-23.62539137 61.92109221 -24.23791764 60.38152574 -24.83276367 58.83520508 C-26.21287444 55.34692903 -26.72011273 54.16564757 -30.0625 52.1875 C-31.031875 51.795625 -32.00125 51.40375 -33 51 C-35 49 -35 49 -35.375 46.125 C-35 43 -35 43 -33.375 40.625 C-30.28813568 38.51293494 -28.6717087 38.38804855 -25 39 C-22.625 40.625 -22.625 40.625 -21 43 C-20.5625 46 -20.5625 46 -21 49 C-21.53107864 49.62985809 -22.06215729 50.25971619 -22.60932922 50.90866089 C-24.26199027 52.88617473 -24.26199027 52.88617473 -23.67741394 55.13796997 C-23.35098404 55.90471039 -23.02455414 56.67145081 -22.68823242 57.46142578 C-22.32763229 58.33558136 -21.96703217 59.20973694 -21.59550476 60.11038208 C-21.18629288 61.04590912 -20.77708099 61.98143616 -20.35546875 62.9453125 C-19.9516951 63.91153534 -19.54792145 64.87775818 -19.13191223 65.8732605 C-17.83555032 68.96533345 -16.51249441 72.0451017 -15.1875 75.125 C-13.87888358 78.21416928 -12.57575676 81.30558302 -11.27522278 84.39816284 C-10.46319556 86.32379262 -9.64536495 88.24698694 -8.82133484 90.16751099 C-8.45127823 91.03536224 -8.08122162 91.9032135 -7.69995117 92.79736328 C-7.37113449 93.56251251 -7.04231781 94.32766174 -6.70353699 95.11599731 C-6 97 -6 97 -6 99 C-4.02 98.67 -2.04 98.34 0 98 C0 73.58 0 49.16 0 24 C-2.31 25.32 -4.62 26.64 -7 28 C-6.76990234 26.89591797 -6.76990234 26.89591797 -6.53515625 25.76953125 C-6.04881806 22.72690308 -5.73153206 20.07439096 -6 17 C-7.65571811 15.03220937 -9.16151745 14.08062207 -11.43359375 12.90234375 C-11.95050781 12.60457031 -12.46742188 12.30679688 -13 12 C-13 11.34 -13 10.68 -13 10 C-12.39671875 10.03222656 -11.7934375 10.06445312 -11.171875 10.09765625 C-8.5229713 10.05920442 -6.49995369 9.90359772 -4 9 C-1.99047395 6.20459632 -0.95103922 3.29205884 0 0 Z " fill="#F4FBFD" transform="translate(448,184)"/>
<path d="M0 0 C1.57206043 4.02157999 0.43161614 7.6480266 -0.50390625 11.6875 C-0.83551685 13.20567886 -1.16688984 14.72390964 -1.49804688 16.2421875 C-2.02915652 18.62639993 -2.56465922 21.00951493 -3.10522461 23.39160156 C-3.62477369 25.69616435 -4.12763419 28.00390394 -4.62890625 30.3125 C-4.79548233 31.02301514 -4.96205841 31.73353027 -5.13368225 32.46557617 C-5.75518598 35.35602753 -6.18685225 37.45718641 -5.21069336 40.29296875 C-4.81116455 40.85628906 -4.41163574 41.41960937 -4 42 C-2 45 -2 45 -2.1875 47.5 C-3.09705128 50.29861933 -3.51170112 51.42407738 -6 53 C-9.4093712 53.36528977 -11.88023824 53.6140629 -14.9375 51.9375 C-16.6140629 48.88023824 -16.36528977 46.4093712 -16 43 C-14.75 41.0625 -14.75 41.0625 -13 40 C-11.68 40 -10.36 40 -9 40 C-8.79395142 38.2528772 -8.79395142 38.2528772 -8.58374023 36.47045898 C-7.81522812 30.33508493 -6.63381977 24.2770795 -5.47094727 18.20678711 C-5.05914629 16.0448935 -4.65948609 13.88095232 -4.25976562 11.71679688 C-3.9981406 10.3436079 -3.73579726 8.97055553 -3.47265625 7.59765625 C-3.23812744 6.35508057 -3.00359863 5.11250488 -2.76196289 3.83227539 C-2.51051514 2.89762451 -2.25906738 1.96297363 -2 1 C-1.34 0.67 -0.68 0.34 0 0 Z " fill="#F8FCFD" transform="translate(442,328)"/>
<path d="M0 0 C6.18125949 1.19287464 12.00335368 2.94575056 17.95898438 4.98242188 C22.46003453 6.51199004 26.98986916 7.88711553 31.5625 9.1875 C39.39828289 11.45199557 47.16988463 13.91862181 54.92306519 16.44961548 C56.30542538 16.89913593 57.68916194 17.3444461 59.07424927 17.78549194 C61.03270215 18.41040627 62.98543062 19.05077673 64.9375 19.6953125 C66.65259766 20.2524292 66.65259766 20.2524292 68.40234375 20.82080078 C69.25957031 21.20993652 70.11679687 21.59907227 71 22 C71.495 23.485 71.495 23.485 72 25 C62.14200875 22.45094277 52.45378274 19.3853209 42.75 16.3125 C41.91482849 16.04876587 41.07965698 15.78503174 40.21917725 15.51330566 C26.72534334 11.24821584 13.31900751 6.7869583 0 2 C0 1.34 0 0.68 0 0 Z " fill="#DBF4F9" transform="translate(360,268)"/>
<path d="M0 0 C0.99 0.33 1.98 0.66 3 1 C2.64397705 1.48130371 2.2879541 1.96260742 1.92114258 2.45849609 C-4.61355124 11.29752382 -11.13180355 20.14741875 -17.5625 29.0625 C-18.08658447 29.78880615 -18.61066895 30.5151123 -19.15063477 31.26342773 C-21.97309583 35.1785937 -24.78782734 39.09919674 -27.59765625 43.0234375 C-28.18796631 43.84577881 -28.77827637 44.66812012 -29.38647461 45.51538086 C-30.51856888 47.09261822 -31.64840735 48.67147797 -32.77563477 50.25219727 C-33.54025024 51.31651978 -33.54025024 51.31651978 -34.3203125 52.40234375 C-34.76648926 53.02616943 -35.21266602 53.64999512 -35.67236328 54.29272461 C-37.0047209 56.00607084 -38.43329654 57.50075262 -40 59 C-40 54.76392631 -39.8010884 54.24105593 -37.39453125 51.0859375 C-36.82984131 50.3343335 -36.26515137 49.58272949 -35.68334961 48.80834961 C-35.06596924 48.00534424 -34.44858887 47.20233887 -33.8125 46.375 C-32.51738091 44.65558652 -31.22312963 42.93551909 -29.9296875 41.21484375 C-29.2706543 40.34327637 -28.61162109 39.47170898 -27.93261719 38.57373047 C-25.04830376 34.73259452 -22.23990184 30.83859526 -19.4375 26.9375 C-18.3802844 25.46999728 -17.32299233 24.00254965 -16.265625 22.53515625 C-15.73775391 21.80184082 -15.20988281 21.06852539 -14.66601562 20.31298828 C-11.67747396 16.16389044 -8.68199514 12.01980196 -5.6875 7.875 C-4.58721118 6.35158301 -3.48694801 4.8281475 -2.38671875 3.3046875 C-1.59114583 2.203125 -0.79557292 1.1015625 0 0 Z " fill="#E1F6FA" transform="translate(435,316)"/>
<path d="M0 0 C0 0.66 0 1.32 0 2 C-0.7878891 2.23772125 -1.5757782 2.4754425 -2.38754272 2.72036743 C-10.30568174 5.1301149 -18.14912154 7.71041502 -25.9765625 10.3984375 C-28.38126785 11.21555796 -30.7862229 12.03194387 -33.19140625 12.84765625 C-36.9354568 14.11842727 -40.67844339 15.39190269 -44.41650391 16.68017578 C-48.05744568 17.93197119 -51.70378598 19.16672526 -55.3515625 20.3984375 C-57.03894028 20.98569107 -57.03894028 20.98569107 -58.76040649 21.58480835 C-59.79934052 21.93242218 -60.83827454 22.28003601 -61.90869141 22.63818359 C-63.27883896 23.1064003 -63.27883896 23.1064003 -64.67666626 23.58407593 C-67 24 -67 24 -70 22 C-59.13567905 18.25709121 -48.26580066 14.53065758 -37.39135742 10.81726074 C-35.08660851 10.02959898 -32.78249245 9.24011219 -30.47851562 8.45019531 C-27.01109097 7.26223139 -23.5409983 6.08240905 -20.06866455 4.90887451 C-18.7793063 4.47180049 -17.4908395 4.03208727 -16.20330811 3.58966064 C-14.41141349 2.97450296 -12.61593258 2.36982183 -10.8203125 1.765625 C-9.81242676 1.42305664 -8.80454102 1.08048828 -7.76611328 0.72753906 C-5.04429401 0.01165015 -2.79885095 -0.14458064 0 0 Z " fill="#DCF4F9" transform="translate(537,269)"/>
<path d="M0 0 C0.66 0 1.32 0 2 0 C3.83326488 2.40231522 5.55230387 4.81627307 7.25 7.3125 C8.3380509 8.88405528 9.42796541 10.45432158 10.51953125 12.0234375 C11.09010254 12.84424805 11.66067383 13.66505859 12.24853516 14.51074219 C15.07974757 18.53458408 18.00719718 22.4855411 20.9375 26.4375 C22.1069237 28.02202261 23.27619378 29.6066586 24.4453125 31.19140625 C26.24932391 33.63456741 28.05617396 36.07543151 29.87011719 38.51123047 C31.69214589 40.96008647 33.50314781 43.41676973 35.3125 45.875 C35.86993896 46.61806396 36.42737793 47.36112793 37.00170898 48.12670898 C41.67407251 54.50748597 41.67407251 54.50748597 42 59 C37.86633496 55.12843328 34.70004444 50.97243048 31.5 46.3125 C30.43835983 44.78846318 29.37582979 43.26504594 28.3125 41.7421875 C27.76722656 40.9594043 27.22195313 40.17662109 26.66015625 39.37011719 C23.97377657 35.53491513 21.24092684 31.7338341 18.5 27.9375 C17.96737549 27.19790039 17.43475098 26.45830078 16.88598633 25.69628906 C14.14025444 21.89929146 11.3574485 18.13680815 8.51171875 14.4140625 C7.95355469 13.68195557 7.39539063 12.94984863 6.8203125 12.19555664 C5.75529558 10.80425089 4.68395303 9.41775784 3.60546875 8.03686523 C0 3.32979352 0 3.32979352 0 0 Z " fill="#E2F6FA" transform="translate(464,317)"/>
<path d="M0 0 C0.66 0.66 1.32 1.32 2 2 C1.76196655 2.51729675 1.52393311 3.03459351 1.27868652 3.56756592 C-1.19584065 8.94912356 -3.65980605 14.33542419 -6.11767578 19.72460938 C-7.03651909 21.73561367 -7.95805427 23.74539029 -8.88232422 25.75390625 C-10.2098914 28.64004585 -11.52773582 31.53045268 -12.84375 34.421875 C-13.25935181 35.31992859 -13.67495361 36.21798218 -14.10314941 37.14324951 C-14.67374084 38.4041037 -14.67374084 38.4041037 -15.25585938 39.69042969 C-15.59339233 40.42767273 -15.93092529 41.16491577 -16.27868652 41.92449951 C-17.21885142 44.26350931 -17.21885142 44.26350931 -17 48 C-17.66 48 -18.32 48 -19 48 C-20.16451417 45.1675619 -19.99375387 43.98074844 -19.03125 41.01416016 C-18.5259375 39.86737793 -18.020625 38.7205957 -17.5 37.5390625 C-17.22663818 36.91204437 -16.95327637 36.28502625 -16.67163086 35.63900757 C-16.08837443 34.3069431 -15.4995987 32.97728377 -14.90576172 31.64990234 C-14.02066916 29.67120756 -13.15134826 27.68624833 -12.28515625 25.69921875 C-8.46294957 16.99009436 -4.330158 8.46782798 0 0 Z " fill="#D9F3F8" transform="translate(475,236)"/>
<path d="M0 0 C0.495 0.99 0.495 0.99 1 2 C1.66 2.33 2.32 2.66 3 3 C2.53851563 3.40089844 2.07703125 3.80179688 1.6015625 4.21484375 C-6.15241596 10.97275779 -13.82696738 17.75174176 -21.05078125 25.078125 C-25.09345889 29.06409173 -29.27343295 32.8489553 -34 36 C-34 33 -34 33 -32.53125 31.203125 C-31.52578125 30.23632812 -31.52578125 30.23632812 -30.5 29.25 C-29.76652344 28.54230469 -29.03304688 27.83460938 -28.27734375 27.10546875 C-25.59213887 24.62292084 -22.83999475 22.23044559 -20.06640625 19.84765625 C-16.99457224 17.10100694 -14.14018007 14.15018289 -11.25 11.21484375 C-8.46001255 8.46844985 -5.52892284 5.92606024 -2.53125 3.41015625 C-0.88101722 2.05785369 -0.88101722 2.05785369 0 0 Z " fill="#E0F5F9" transform="translate(498,252)"/>
<path d="M0 0 C0.61875 0.639375 1.2375 1.27875 1.875 1.9375 C5.16770777 5.23020777 8.65078866 8.3031456 12.12109375 11.40625 C15.29380991 14.26470798 18.43044894 17.15967909 21.5625 20.0625 C26.65035882 24.77492076 31.78985858 29.42261478 37 34 C36.34 34.66 35.68 35.32 35 36 C34.56768066 35.59273682 34.13536133 35.18547363 33.68994141 34.76586914 C22.06496742 23.82172033 10.44983947 13.01194315 -2 3 C-1.34 2.67 -0.68 2.34 0 2 C0 1.34 0 0.68 0 0 Z " fill="#E2F6FA" transform="translate(400,252)"/>
<path d="M0 0 C0.33 0 0.66 0 1 0 C1.96549545 4.727146 2.92550277 9.4553648 3.88085938 14.18457031 C4.20527024 15.78674966 4.53107178 17.38864818 4.85839844 18.99023438 C6.8957263 28.96439165 8.70377894 38.89764094 10 49 C9.34 49 8.68 49 8 49 C5.91424764 40.18912329 3.99081174 31.35417435 2.21020508 22.4765625 C1.80705751 20.47295127 1.39671798 18.4708888 0.98632812 16.46875 C0.72916016 15.19 0.47199219 13.91125 0.20703125 12.59375 C-0.0252417 11.44583984 -0.25751465 10.29792969 -0.49682617 9.11523438 C-0.94762577 6.32425774 -1.180742 3.81765582 -1 1 C-0.67 0.67 -0.34 0.34 0 0 Z " fill="#DBF4F9" transform="translate(454,317)"/>
<path d="M0 0 C0.99 0.33 1.98 0.66 3 1 C0.27262942 3.11814679 -2.48867964 4.93502438 -5.4921875 6.63671875 C-6.78829956 7.37390137 -6.78829956 7.37390137 -8.1105957 8.12597656 C-9.02284912 8.6412793 -9.93510254 9.15658203 -10.875 9.6875 C-12.76172382 10.75910565 -14.64844256 11.83072027 -16.53515625 12.90234375 C-17.46086426 13.42683105 -18.38657227 13.95131836 -19.34033203 14.49169922 C-23.00290984 16.56875133 -26.65808076 18.65863889 -30.3125 20.75 C-33.15625 22.375 -33.15625 22.375 -36 24 C-36.99 23.34 -37.98 22.68 -39 22 C-38.42258057 21.68885254 -37.84516113 21.37770508 -37.25024414 21.05712891 C-34.51921688 19.58301793 -31.79054564 18.10462177 -29.0625 16.625 C-27.57496216 15.81929565 -27.57496216 15.81929565 -26.05737305 14.99731445 C-18.98331577 11.14260903 -12.02101834 7.13771578 -5.19360352 2.85986328 C-3.50609071 1.83121582 -1.75694471 0.90496428 0 0 Z " fill="#DEF5F9" transform="translate(431,310)"/>
<path d="M0 0 C1.55396693 2.33095039 2.6104747 4.22934351 3.67993164 6.76538086 C3.99688492 7.51303207 4.3138382 8.26068329 4.64039612 9.0309906 C4.97691696 9.83416214 5.31343781 10.63733368 5.66015625 11.46484375 C6.18505898 12.70942101 6.18505898 12.70942101 6.7205658 13.97914124 C7.45920395 15.73276418 8.1962724 17.487049 8.93188477 19.24194336 C10.0575035 21.9255876 11.18952003 24.6064668 12.32226562 27.28710938 C13.03944871 28.99202509 13.75625811 30.69709806 14.47265625 32.40234375 C14.81120132 33.20349106 15.1497464 34.00463837 15.49855042 34.83006287 C15.81235153 35.58086624 16.12615265 36.33166962 16.44946289 37.10522461 C16.72544815 37.76235947 17.00143341 38.41949432 17.28578186 39.09654236 C18.03582296 41.09547151 18.6969698 42.88158198 19 45 C18.34 45.99 17.68 46.98 17 48 C16.78303467 47.38068604 16.56606934 46.76137207 16.3425293 46.12329102 C13.66640332 38.61441646 10.69203397 31.24542819 7.6262207 23.88989258 C6.80105639 21.9100429 5.97935664 19.92878176 5.15820312 17.94726562 C2.71770469 11.91101556 2.71770469 11.91101556 0 6 C-0.039992 4.00039988 -0.04346799 1.99952758 0 0 Z " fill="#E0F5F9" transform="translate(423,237)"/>
<path d="M0 0 C-2.83915765 2.83915765 -5.82380988 2.56555792 -9.6484375 2.8515625 C-10.41620514 2.91532074 -11.18397278 2.97907898 -11.9750061 3.04476929 C-13.60717544 3.17837557 -15.23971413 3.30753187 -16.87255859 3.43261719 C-19.33137987 3.62164657 -21.78864841 3.82518323 -24.24609375 4.03125 C-32.84551717 4.73175931 -41.36456252 5.21187319 -50 5 C-46.6023981 2.73493207 -44.76341628 2.55736633 -40.7421875 2.1484375 C-39.4835791 2.01928955 -38.2249707 1.8901416 -36.92822266 1.75708008 C-35.57722053 1.62895755 -34.22614466 1.50161056 -32.875 1.375 C-31.86188751 1.27594864 -31.86188751 1.27594864 -30.82830811 1.17489624 C-20.53316903 0.17248529 -10.34809732 -0.40967541 0 0 Z " fill="#DEF5F9" transform="translate(431,302)"/>
<path d="M0 0 C1.54848741 4.01841561 0.5125962 7.72719847 -0.328125 11.79296875 C-0.47779724 12.53960281 -0.62746948 13.28623688 -0.78167725 14.05549622 C-1.10014509 15.62897309 -1.42318589 17.20153042 -1.75048828 18.77319336 C-2.2497512 21.18629746 -2.72516478 23.60331788 -3.19921875 26.02148438 C-3.51158385 27.54977357 -3.82533815 29.07777963 -4.140625 30.60546875 C-4.28139465 31.33146774 -4.42216431 32.05746674 -4.56719971 32.8054657 C-5.00097656 34.82885742 -5.00097656 34.82885742 -6 38 C-7.485 38.495 -7.485 38.495 -9 39 C-8.04714267 32.05112725 -6.7829463 25.17120764 -5.47094727 18.28222656 C-5.19674663 16.83402765 -4.92628801 15.38511563 -4.65942383 13.93554688 C-4.27216901 11.8329685 -3.87373085 9.7327927 -3.47265625 7.6328125 C-3.23812744 6.38387207 -3.00359863 5.13493164 -2.76196289 3.84814453 C-2.51051514 2.90825684 -2.25906738 1.96836914 -2 1 C-1.34 0.67 -0.68 0.34 0 0 Z " fill="#D6F2F8" transform="translate(442,328)"/>
<path d="M0 0 C2.88676463 0.6106082 5.12178693 1.49522131 7.65234375 3.00390625 C8.34078369 3.41141113 9.02922363 3.81891602 9.73852539 4.23876953 C10.82701782 4.89401611 10.82701782 4.89401611 11.9375 5.5625 C12.68443115 6.00706543 13.4313623 6.45163086 14.20092773 6.90966797 C20.84131167 10.87337929 27.43509079 14.91263044 34 19 C33.505 20.485 33.505 20.485 33 22 C32.17798096 21.50072998 31.35596191 21.00145996 30.5090332 20.48706055 C27.44335966 18.62510966 24.37757931 16.76333467 21.31176758 14.90161133 C19.98784544 14.09762247 18.66395182 13.29358665 17.34008789 12.48950195 C15.43122836 11.33011566 13.52226451 10.17090131 11.61328125 9.01171875 C11.02662186 8.65534836 10.43996246 8.29897797 9.83552551 7.93180847 C7.2703829 6.3743881 4.70760318 4.83683312 2.08666992 3.37426758 C1.39806885 2.92075928 0.70946777 2.46725098 0 2 C0 1.34 0 0.68 0 0 Z " fill="#E0F5F9" transform="translate(469,312)"/>
<path d="M0 0 C8.26218593 1.59445693 16.06288986 4.26018069 24 7 C24 7.33 24 7.66 24 8 C15.35849242 7.78097561 7.9665934 5.11087437 0 2 C0 1.34 0 0.68 0 0 Z " fill="#E2F6FA" transform="translate(360,268)"/>
<path d="M0 0 C1.51553092 3.97450493 0.49888623 7.20481149 -0.4375 11.25 C-0.72496094 12.51328125 -1.01242187 13.7765625 -1.30859375 15.078125 C-1.53675781 16.04234375 -1.76492188 17.0065625 -2 18 C-4.18877974 14.7168304 -4.20692788 14.29228597 -3.6875 10.625 C-3.57664062 9.83351563 -3.46578125 9.04203125 -3.3515625 8.2265625 C-3.23554688 7.49179687 -3.11953125 6.75703125 -3 6 C-2.855625 5.01 -2.71125 4.02 -2.5625 3 C-2.376875 2.34 -2.19125 1.68 -2 1 C-1.34 0.67 -0.68 0.34 0 0 Z " fill="#C6EDF5" transform="translate(442,328)"/>
<path d="M0 0 C1.48206495 0.254496 2.96068615 0.52911762 4.4375 0.8125 C5.67306641 1.03873047 5.67306641 1.03873047 6.93359375 1.26953125 C7.95646484 1.63111328 7.95646484 1.63111328 9 2 C9.33 2.99 9.66 3.98 10 5 C6.7 4.01 3.4 3.02 0 2 C0 1.34 0 0.68 0 0 Z " fill="#D7F2F8" transform="translate(360,268)"/>
<path d="M0 0 C1.46726798 3.81489674 0.43336419 6.29011622 -1 10 C-1.33 10 -1.66 10 -2 10 C-2.25 3.375 -2.25 3.375 0 0 Z " fill="#E6F7FA" transform="translate(443,321)"/>
<path d="M0 0 C2.97 0.495 2.97 0.495 6 1 C6.33 1.99 6.66 2.98 7 4 C4.36 3.34 1.72 2.68 -1 2 C-0.67 1.34 -0.34 0.68 0 0 Z " fill="#C9EEF6" transform="translate(397,280)"/>
</svg>
